<svg xmlns="http://www.w3.org/2000/svg" width="512" height="512" viewBox="0 0 512 512">
  <defs><linearGradient id="g" x1="0" y1="0" x2="1" y2="1"><stop stop-color="#21c7df"/><stop offset="1" stop-color="#6f5ce7"/></linearGradient></defs>
  <rect width="512" height="512" rx="112" fill="#081321"/>
  <rect x="116" y="116" width="280" height="280" rx="48" fill="url(#g)"/>
  <rect x="159" y="159" width="194" height="194" rx="25" fill="#081321"/>
  <path d="M205 309V203h63c32 0 53 18 53 48 0 31-21 50-54 50h-27v8h-35zm35-38h25c14 0 21-7 21-20 0-12-7-18-21-18h-25v38z" fill="#e9f5ff"/>
  <g fill="#42d9e9"><rect x="65" y="178" width="51" height="15" rx="7"/><rect x="65" y="249" width="51" height="15" rx="7"/><rect x="65" y="320" width="51" height="15" rx="7"/><rect x="396" y="178" width="51" height="15" rx="7"/><rect x="396" y="249" width="51" height="15" rx="7"/><rect x="396" y="320" width="51" height="15" rx="7"/><rect x="178" y="65" width="15" height="51" rx="7"/><rect x="249" y="65" width="15" height="51" rx="7"/><rect x="320" y="65" width="15" height="51" rx="7"/><rect x="178" y="396" width="15" height="51" rx="7"/><rect x="249" y="396" width="15" height="51" rx="7"/><rect x="320" y="396" width="15" height="51" rx="7"/></g>
</svg>
